<svg version="1.0" xmlns="http://www.w3.org/2000/svg"
  width="300.000000pt" height="301.000000pt" viewBox="0 0 300.000000 301.000000"
  preserveAspectRatio="xMidYMid meet">
  <circle cx="50%" cy="50%" r="50%" fill="#FFFFFF"/>
  <g transform="translate(0.000000,251.000000) scale(0.100000,-0.100000)"
    fill="#000000" stroke="none">
    <path
      d="M1450 2843 c-146 -11 -267 -65 -374 -164 -117 -109 -179 -237 -192
-397 -7 -88 16 -200 67 -324 16 -39 29 -72 29 -74 0 -2 -53 -4 -117 -4 -65 0
-135 -5 -155 -10 -75 -21 -117 -76 -152 -195 -10 -33 -22 -71 -26 -85 -8 -22
-131 -431 -180 -595 -9 -33 -49 -163 -87 -290 -93 -303 -97 -319 -83 -380 13
-59 33 -93 68 -120 27 -20 45 -20 1245 -23 1038 -2 1222 0 1251 12 76 32 113
145 83 256 -8 30 -67 228 -132 440 -64 212 -148 491 -187 620 -39 129 -80 252
-91 273 -13 23 -41 50 -67 65 -44 26 -49 27 -210 27 -130 0 -165 -3 -165 -13
0 -7 -14 -25 -32 -40 -18 -16 -58 -78 -94 -147 -34 -66 -73 -137 -86 -157 -12
-21 -23 -40 -23 -42 0 -22 -246 -406 -260 -406 -10 0 -111 149 -159 232 -10
18 -52 92 -93 163 -42 72 -99 175 -127 230 -29 55 -68 114 -87 132 -34 32 -43
53 -24 53 15 0 12 18 -15 87 -65 162 -79 286 -45 417 50 197 200 351 400 412
55 17 237 19 288 4 187 -57 331 -185 393 -349 53 -144 50 -267 -11 -443 -44
-126 -44 -128 -31 -128 13 0 66 131 90 224 12 44 21 105 21 135 -1 223 -139
447 -335 541 -94 45 -208 69 -295 63z m-389 -1130 c24 -49 57 -113 75 -143 96
-168 165 -285 218 -370 33 -52 74 -119 92 -148 l33 -54 57 88 c132 205 309
512 379 657 l28 57 178 0 179 0 29 -27 c30 -29 62 -120 166 -473 20 -69 63
-210 95 -315 185 -598 189 -616 162 -681 -7 -17 -25 -36 -38 -43 -18 -8 -352
-11 -1214 -11 l-1189 0 -27 23 c-42 36 -44 114 -6 237 16 52 52 174 81 270 29
96 65 216 81 265 16 50 56 182 90 295 112 372 122 400 151 431 l27 29 155 0
155 0 43 -87z" />
    <path
      d="M900 1549 c0 -8 14 -32 31 -54 24 -32 40 -42 82 -52 29 -7 57 -12 63
-13 10 0 34 70 34 98 0 5 -30 12 -67 16 -38 3 -85 9 -105 12 -29 5 -38 3 -38
-7z m165 -50 c5 -6 5 -13 -2 -20 -15 -15 -93 7 -93 27 0 13 8 14 43 9 23 -4
46 -11 52 -16z" />
    <path
      d="M2027 1547 l-48 -12 -1 -160 -1 -160 79 -66 79 -66 55 8 c30 4 76 8
103 8 26 1 47 3 47 5 0 2 -13 18 -30 36 -33 35 -74 152 -86 242 -4 29 -8 60
-10 68 -1 8 -3 32 -3 52 -1 34 -4 38 -38 47 -47 13 -84 13 -146 -2z m126 -26
c21 -8 25 -18 31 -68 12 -105 34 -202 61 -266 8 -20 15 -41 15 -46 0 -5 -27
-12 -60 -16 l-59 -7 -65 54 -66 53 0 136 c0 97 4 140 13 147 23 19 94 26 130
13z" />
    <path
      d="M586 867 c-4 -45 -10 -108 -13 -140 l-6 -58 48 25 c26 14 65 41 86
61 21 19 44 35 49 35 6 0 10 8 10 18 0 23 -61 81 -121 115 l-46 26 -7 -82z
m89 -7 c18 -11 35 -27 38 -34 6 -15 -69 -86 -90 -86 -14 0 -17 42 -7 103 8 43
14 45 59 17z" />
    <path
      d="M1806 695 c-17 -39 -16 -41 105 -205 30 -41 63 -87 72 -102 l17 -28
250 0 250 0 -5 23 c-5 22 -25 172 -25 186 0 5 -26 11 -57 14 -32 4 -74 11 -93
17 -53 15 -129 66 -148 100 l-17 30 -167 0 -168 0 -14 -35z m364 -34 c26 -26
63 -53 81 -60 19 -7 43 -17 54 -22 11 -5 47 -15 79 -22 64 -14 72 -25 76 -100
4 -73 24 -67 -222 -67 l-223 0 -85 120 c-139 196 -138 201 63 199 l130 -1 47
-47z" />
    <path
      d="M1304 507 c-55 -21 -135 -53 -179 -71 -44 -18 -104 -42 -132 -52 -29
-10 -53 -20 -53 -23 0 -4 186 -5 414 -3 l414 2 -44 78 c-24 42 -47 83 -51 91
-7 11 -16 10 -50 -8 -55 -28 -118 -27 -175 2 l-46 23 -98 -39z m144 -19 c14
-14 140 -16 184 -4 24 7 29 4 48 -34 27 -52 17 -63 -52 -56 -34 4 -48 1 -48
-7 0 -7 -4 -6 -10 3 -8 12 -13 13 -29 3 -10 -6 -21 -10 -24 -7 -3 3 -86 6
-185 7 -100 1 -183 5 -186 8 -3 3 36 22 87 43 51 21 101 41 112 46 30 13 89
12 103 -2z" />
    <path
      d="M1420 2576 c-110 -24 -198 -94 -248 -196 -23 -47 -27 -68 -27 -141 0
-77 3 -91 34 -153 39 -76 87 -122 167 -160 75 -36 189 -37 266 -3 70 31 143
104 176 175 23 48 27 71 27 142 0 74 -4 93 -29 143 -51 102 -142 175 -242 192
-21 4 -46 8 -54 10 -8 2 -40 -2 -70 -9z m197 -53 c103 -48 164 -144 171 -269
4 -73 1 -88 -23 -143 -32 -70 -93 -132 -163 -164 -72 -33 -180 -31 -253 6
-194 95 -240 353 -91 505 98 100 232 124 359 65z" />
  </g>
</svg>
